<?xml version="1.0" encoding="UTF-8"?>
<svg id="Layer_1" data-name="Layer 1" xmlns="http://www.w3.org/2000/svg" version="1.1" viewBox="0 0 2102.6 318.2">
  <defs>
    <style>
      .cls-1 {
        fill: #b40505;
      }

      .cls-1, .cls-2 {
        stroke-width: 0px;
      }

      .cls-2 {
        fill: #f9f9f9;
      }
    </style>
  </defs>
  <path class="cls-2" d="M126.4,148.1c4.7,0,8.9.6,12.6,1.9,3.7,1.3,6.6,3.4,8.8,6.2,2.2,2.9,3.5,6.5,3.9,10.9.4,4.4-.3,9.7-2.1,15.9l-24.9,84.7c-1.3,4.4-3.1,7.9-5.5,10.6-2.4,2.7-5,4.8-7.8,6.2-2.8,1.5-5.9,2.4-9,2.9s-6.3.7-9.4.7h-48.1c-7,0-12.4-2.5-16.2-7.6-3.8-5-4.5-11.6-2.1-19.8l12.2-42h38.8l-9.3,30.8c-.7,2.1-.5,3.5.5,4,1,.6,2.2.9,3.7.9h9.3c2.3,0,4-.4,5.1-1.1,1.1-.7,2-2.2,2.7-4.5l19.8-66.9c.3-1,.4-1.8.1-2.4-.2-.6-1.2-1-2.8-1h-55.9l9-30.5h66.7,0ZM61.4,142.2l24.9-84.2c1.3-4.4,3-8,5.1-10.7,2.1-2.8,4.5-4.9,7.2-6.5,2.7-1.5,5.6-2.6,8.7-3,3.1-.5,6.2-.7,9.3-.7h75.9l-20.3,69.3-41.3,9.3,13.7-46.2h-15.4c-2.3,0-3.9.4-5,1.1-1.1.7-1.9,2.2-2.6,4.5l-19.5,67.2h-40.8,0Z"/>
  <path class="cls-2" d="M271.6,80.9c1.6-5.7-.6-8.6-6.8-8.6h-72.3l22.5-35.4h80.3c9.3,0,15.8,2.8,19.7,8.3,3.8,5.5,4.5,12.5,2.1,20.7l-56.9,195.6c-1.5,5.2-3.6,9.5-6.5,12.9s-6.1,6.1-9.6,8.2c-3.6,2-7.4,3.5-11.6,4.3-4.1.8-8.3,1.2-12.6,1.2h-37.6c-4.4,0-8.4-.7-12.1-2.2-3.7-1.5-6.6-3.6-8.9-6.5s-3.7-6.4-4.3-10.6c-.6-4.2,0-9.2,1.6-14.9l51.8-175.8h41l-49.6,168.2c-1.3,4.2.2,6.4,4.4,6.4h10c2.1,0,3.7-.5,4.8-1.6s1.9-2.6,2.6-4.8l48.1-165.5h0Z"/>
  <path class="cls-2" d="M389.1,37l-60.5,205.6c-1.1,3.8-1.1,6.4.1,7.9,1.2,1.6,3.7,2.3,7.5,2.3h9l63.7-215.8h41l-72.8,246.9-47.6,24.2,5.9-19.8h-18.6c-6.4,0-11.9-.7-16.7-2.2-4.8-1.5-8.6-3.9-11.4-7.2-2.8-3.3-4.4-7.7-4.9-13.1-.5-5.4.4-12,2.7-19.8l61.5-209h41,0Z"/>
  <path class="cls-2" d="M446.7,288.2h-41l61.8-210h41l-61.8,210ZM527.5,80.9c1.6-5.7-.7-8.6-6.8-8.6h-71l22.5-35.4h79.4c9.3,0,15.8,2.8,19.5,8.3,3.7,5.5,4.4,12.5,2,20.7l-65.4,222.2h-41l61-207.3h0Z"/>
  <path class="cls-2" d="M657.4,80.9c1.6-5.7-.7-8.6-6.8-8.6h-71.8l22.5-35.4h79.8c9.3,0,15.8,2.8,19.7,8.3,3.8,5.5,4.5,12.5,2.1,20.7l-57.6,195.6c-1.5,5.2-3.6,9.5-6.5,12.9s-6.1,6.1-9.6,8.2c-3.6,2-7.5,3.5-11.6,4.3-4.2.8-8.3,1.2-12.6,1.2h-69.8l61.5-210h41l-51.5,174.6h14.7c4.1,0,6.8-2.1,8.1-6.4l48.6-165.5h0Z"/>
  <path class="cls-1" d="M834.2,80.9c1.6-5.7-.7-8.6-6.8-8.6h-72.3l22.5-35.4h80.3c9.3,0,15.8,2.8,19.7,8.3,3.8,5.5,4.5,12.5,2.1,20.7l-56.9,195.6c-1.5,5.2-3.6,9.5-6.5,12.9s-6.1,6.1-9.6,8.2c-3.6,2-7.5,3.5-11.6,4.3-4.2.8-8.3,1.2-12.6,1.2h-37.6c-4.4,0-8.4-.7-12.1-2.2-3.7-1.5-6.6-3.6-8.9-6.5-2.3-2.9-3.7-6.4-4.3-10.6-.6-4.2,0-9.2,1.6-14.9l51.8-175.8h41l-49.6,168.2c-1.3,4.2.2,6.4,4.4,6.4h10c2.1,0,3.7-.5,4.8-1.6s1.9-2.6,2.6-4.8l48.1-165.5h0Z"/>
  <path class="cls-1" d="M903.3,78.3h41l-18.8,64.2h37.1l-10.7,36.1h-37.1l-32.2,109.6h-41l61.8-210h0ZM985.1,72.4h-99.6l22.5-35.4h87.4l-10.2,35.4h0Z"/>
  <path class="cls-1" d="M1064.7,78.3l-62,210h-41l61.8-210h41.3ZM987.5,72.4l15.4-35.4h110.1l-10.5,35.4h-115Z"/>
  <path class="cls-1" d="M1140.6,197.4l6.3-21.7h-20.5l-33.4,112.6h-41l74-251.2h41l-31.2,106.5h20.8l6.6-22.2,26.1,40.8-48.6,35.4h0ZM1190.4,168.1l-35.4,120.1h-41.5l24.2-81.3,52.7-38.8ZM1165,113.9l22.7-76.9h41.3l-35.4,120.6s-28.6-43.7-28.6-43.7Z"/>
  <path class="cls-1" d="M1287.1,78.3l-18.8,64.2h39.3l-10.5,36.1h-39.6l-21,71.8h43.7l-20.8,37.8h-75.2l61.8-210h41,0ZM1327.9,72.4h-99.6l22.5-35.4h87.4l-10.2,35.4Z"/>
  <path class="cls-2" d="M1460.7,80.9c1.6-5.7-.7-8.6-6.8-8.6h-71.8l22.5-35.4h79.8c9.3,0,15.8,2.8,19.7,8.3,3.8,5.5,4.5,12.5,2.1,20.7l-57.6,195.6c-1.5,5.2-3.6,9.5-6.5,12.9s-6.1,6.1-9.6,8.2c-3.6,2-7.4,3.5-11.6,4.3-4.2.8-8.3,1.2-12.6,1.2h-69.8l61.5-210h41l-51.5,174.6h14.7c4.1,0,6.8-2.1,8.1-6.4l48.6-165.5h0Z"/>
  <path class="cls-2" d="M1563.5,153.5c2.3,0,4.3-.6,6.1-1.8,1.8-1.2,3.2-3.8,4.4-7.7l18.1-61.8c1.8-6.5-.4-9.8-6.6-9.8h-73.5l22.5-35.4h79.8c9.3,0,15.6,2.8,19,8.3,3.4,5.5,3.9,12.5,1.5,20.7l-27.6,92.3c-1.1,3.8-3.3,7.1-6.3,10.1-3.1,3-7.8,4.5-14.2,4.5,5.9.5,9.4,3.3,10.6,8.6s.8,11.4-1.3,18.6l-26.1,88.1h-41l28.3-95.7c.7-2.3.6-4.1-.2-5.4-.8-1.3-2.5-1.9-5.1-1.9h-12.2l-30.5,103h-41l61.8-210h41l-22,75.2h14.7Z"/>
  <path class="cls-2" d="M1707.1,37l-60.6,205.6c-1.1,3.8-1.1,6.4.1,7.9,1.2,1.6,3.7,2.3,7.4,2.3h9l63.7-215.8h41l-72.8,246.9-47.6,24.2,5.9-19.8h-18.6c-6.3,0-11.9-.7-16.7-2.2-4.8-1.5-8.6-3.9-11.3-7.2-2.8-3.3-4.4-7.7-4.9-13.1s.4-12,2.7-19.8l61.5-209h41,0Z"/>
  <path class="cls-2" d="M1764.7,288.2h-41l61.8-210h41l-61.8,210ZM1906.3,80.9c1.6-5.7-.7-8.6-6.8-8.6h-131.8l22.5-35.4h140.2c9.3,0,15.8,2.8,19.5,8.3,3.7,5.5,4.4,12.5,1.9,20.7l-65.4,222.2h-41l61-207.3h0ZM1825.5,288.2h-41l61.8-210h41l-61.8,210Z"/>
  <path class="cls-2" d="M2016.6,148.1c4.7,0,8.9.6,12.6,1.9,3.7,1.3,6.6,3.4,8.8,6.2,2.2,2.9,3.5,6.5,3.9,10.9.4,4.4-.3,9.7-2.1,15.9l-24.9,84.7c-1.3,4.4-3.1,7.9-5.5,10.6-2.4,2.7-5,4.8-7.8,6.2-2.8,1.5-5.9,2.4-9,2.9s-6.3.7-9.4.7h-48.1c-7,0-12.4-2.5-16.2-7.6-3.8-5-4.5-11.6-2.1-19.8l12.2-42h38.8l-9.3,30.8c-.7,2.1-.5,3.5.5,4,1,.6,2.2.9,3.7.9h9.3c2.3,0,4-.4,5.1-1.1,1.1-.7,2-2.2,2.7-4.5l19.8-66.9c.3-1,.4-1.8.1-2.4-.2-.6-1.2-1-2.8-1h-55.9l9-30.5h66.7ZM1951.7,142.2l24.9-84.2c1.3-4.4,3-8,5.1-10.7,2.1-2.8,4.5-4.9,7.2-6.5,2.7-1.5,5.6-2.6,8.7-3,3.1-.5,6.2-.7,9.3-.7h75.9l-20.3,69.3-41.3,9.3,13.7-46.2h-15.4c-2.3,0-3.9.4-5,1.1-1.1.7-1.9,2.2-2.6,4.5l-19.5,67.2h-40.8Z"/>
</svg>