<?xml version="1.0" encoding="UTF-8"?>
<svg id="Layer_1" data-name="Layer 1" xmlns="http://www.w3.org/2000/svg" version="1.1" viewBox="0 0 2102.59 318.22">
  <defs>
    <style>
      .cls-1 {
        fill: #000;
      }

      .cls-1, .cls-2 {
        stroke-width: 0px;
      }

      .cls-2 {
        fill: #b40505;
      }
    </style>
  </defs>
  <path class="cls-1" d="M126.37,148.1c4.72,0,8.91.65,12.57,1.95,3.66,1.31,6.59,3.38,8.79,6.23,2.2,2.85,3.5,6.47,3.91,10.87.4,4.4-.29,9.69-2.08,15.87l-24.9,84.72c-1.3,4.39-3.14,7.94-5.49,10.62-2.36,2.69-4.97,4.76-7.81,6.23-2.85,1.46-5.86,2.44-9.03,2.93-3.17.49-6.31.73-9.4.73h-48.1c-7,0-12.41-2.52-16.24-7.57-3.83-5.04-4.52-11.64-2.08-19.78l12.21-42h38.82l-9.28,30.76c-.65,2.12-.49,3.46.49,4.03.98.57,2.2.85,3.66.85h9.28c2.28,0,3.99-.37,5.13-1.1,1.14-.73,2.03-2.24,2.69-4.52l19.78-66.9c.32-.98.37-1.79.12-2.44-.24-.65-1.18-.98-2.81-.98h-55.91l9.03-30.52h66.66ZM61.42,142.24l24.9-84.24c1.3-4.4,3.01-7.97,5.13-10.74,2.11-2.77,4.52-4.92,7.2-6.47,2.69-1.54,5.57-2.56,8.67-3.05,3.09-.49,6.18-.73,9.28-.73h75.93l-20.27,69.34-41.26,9.28,13.67-46.15h-15.38c-2.28,0-3.95.37-5.01,1.1-1.06.73-1.92,2.24-2.56,4.52l-19.53,67.15h-40.78Z"/>
  <path class="cls-1" d="M271.65,80.95c1.63-5.7-.65-8.55-6.84-8.55h-72.27l22.46-35.4h80.33c9.28,0,15.83,2.77,19.66,8.3,3.82,5.54,4.52,12.45,2.08,20.75l-56.89,195.58c-1.46,5.21-3.62,9.52-6.47,12.94-2.85,3.42-6.07,6.15-9.64,8.18-3.58,2.04-7.45,3.46-11.6,4.27-4.15.82-8.34,1.22-12.57,1.22h-37.6c-4.4,0-8.42-.73-12.09-2.2-3.66-1.46-6.63-3.62-8.91-6.47-2.28-2.85-3.7-6.39-4.27-10.62-.57-4.23-.04-9.19,1.59-14.89l51.76-175.8h41.02l-49.56,168.23c-1.3,4.23.16,6.35,4.4,6.35h10.01c2.11,0,3.7-.53,4.76-1.59,1.06-1.06,1.91-2.64,2.56-4.76l48.1-165.54Z"/>
  <path class="cls-1" d="M389.09,37l-60.55,205.59c-1.14,3.75-1.1,6.39.12,7.93,1.22,1.55,3.7,2.32,7.45,2.32h9.03l63.73-215.84h41.02l-72.76,246.85-47.61,24.17,5.86-19.78h-18.56c-6.35,0-11.93-.73-16.73-2.2-4.8-1.46-8.59-3.87-11.35-7.2-2.77-3.33-4.4-7.69-4.88-13.06-.49-5.37.4-11.96,2.69-19.78l61.53-209h41.02Z"/>
  <path class="cls-1" d="M446.71,288.25h-41.02l61.77-209.98h41.02l-61.77,209.98ZM527.52,80.95c1.63-5.7-.65-8.55-6.84-8.55h-71.05l22.46-35.4h79.35c9.28,0,15.79,2.77,19.53,8.3,3.74,5.54,4.4,12.45,1.95,20.75l-65.44,222.19h-41.02l61.04-207.3Z"/>
  <path class="cls-1" d="M657.42,80.95c1.63-5.7-.65-8.55-6.84-8.55h-71.78l22.46-35.4h79.84c9.28,0,15.83,2.77,19.66,8.3,3.82,5.54,4.52,12.45,2.08,20.75l-57.62,195.58c-1.46,5.21-3.62,9.52-6.47,12.94-2.85,3.42-6.07,6.15-9.64,8.18-3.58,2.04-7.45,3.46-11.6,4.27-4.15.82-8.34,1.22-12.57,1.22h-69.83l61.53-209.98h41.02l-51.52,174.58h14.65c4.07,0,6.75-2.11,8.06-6.35l48.59-165.54Z"/>
  <path class="cls-2" d="M834.19,80.95c1.63-5.7-.65-8.55-6.84-8.55h-72.27l22.46-35.4h80.33c9.28,0,15.83,2.77,19.66,8.3,3.82,5.54,4.52,12.45,2.08,20.75l-56.89,195.58c-1.46,5.21-3.62,9.52-6.47,12.94-2.85,3.42-6.07,6.15-9.64,8.18-3.58,2.04-7.45,3.46-11.6,4.27-4.15.82-8.34,1.22-12.57,1.22h-37.6c-4.4,0-8.42-.73-12.09-2.2-3.66-1.46-6.63-3.62-8.91-6.47-2.28-2.85-3.7-6.39-4.27-10.62-.57-4.23-.04-9.19,1.59-14.89l51.76-175.8h41.02l-49.56,168.23c-1.3,4.23.16,6.35,4.4,6.35h10.01c2.11,0,3.7-.53,4.76-1.59,1.06-1.06,1.91-2.64,2.56-4.76l48.1-165.54Z"/>
  <path class="cls-2" d="M903.29,78.26h41.02l-18.8,64.21h37.11l-10.74,36.14h-37.11l-32.23,109.63h-41.02l61.77-209.98ZM985.08,72.41h-99.62l22.46-35.4h87.41l-10.25,35.4Z"/>
  <path class="cls-2" d="M1064.68,78.26l-62.02,209.98h-41.02l61.77-209.98h41.26ZM987.52,72.41l15.38-35.4h110.12l-10.5,35.4h-115Z"/>
  <path class="cls-2" d="M1140.61,197.42l6.35-21.73h-20.51l-33.45,112.56h-41.02l73.98-251.24h41.02l-31.25,106.46h20.75l6.59-22.22,26.13,40.78-48.59,35.4ZM1190.42,168.12l-35.4,120.13h-41.51l24.17-81.31,52.74-38.82ZM1165.02,113.91l22.71-76.91h41.26l-35.4,120.62-28.57-43.71Z"/>
  <path class="cls-2" d="M1287.1,78.26l-18.8,64.21h39.31l-10.5,36.14h-39.55l-21,71.78h43.71l-20.75,37.85h-75.2l61.77-209.98h41.02ZM1327.87,72.41h-99.62l22.46-35.4h87.41l-10.25,35.4Z"/>
  <path class="cls-1" d="M1460.7,80.95c1.62-5.7-.65-8.55-6.84-8.55h-71.78l22.46-35.4h79.84c9.28,0,15.83,2.77,19.65,8.3,3.82,5.54,4.52,12.45,2.08,20.75l-57.62,195.58c-1.46,5.21-3.62,9.52-6.47,12.94-2.85,3.42-6.07,6.15-9.64,8.18-3.58,2.04-7.45,3.46-11.6,4.27-4.15.82-8.34,1.22-12.57,1.22h-69.83l61.53-209.98h41.02l-51.52,174.58h14.65c4.07,0,6.75-2.11,8.06-6.35l48.59-165.54Z"/>
  <path class="cls-1" d="M1563.49,153.47c2.28,0,4.31-.61,6.1-1.83,1.79-1.22,3.25-3.79,4.39-7.69l18.07-61.77c1.79-6.51-.41-9.77-6.59-9.77h-73.49l22.46-35.4h79.84c9.28,0,15.63,2.77,19.04,8.3,3.42,5.54,3.91,12.45,1.46,20.75l-27.59,92.29c-1.14,3.75-3.26,7.12-6.35,10.13-3.09,3.01-7.81,4.52-14.16,4.52,5.86.49,9.4,3.34,10.62,8.55,1.22,5.21.77,11.4-1.34,18.56l-26.12,88.14h-41.02l28.32-95.71c.65-2.28.57-4.07-.24-5.37-.82-1.3-2.53-1.95-5.13-1.95h-12.21l-30.52,103.04h-41.02l61.77-209.98h41.02l-21.97,75.2h14.65Z"/>
  <path class="cls-1" d="M1707.05,37l-60.55,205.59c-1.14,3.75-1.1,6.39.12,7.93,1.22,1.55,3.7,2.32,7.45,2.32h9.03l63.73-215.84h41.02l-72.76,246.85-47.61,24.17,5.86-19.78h-18.56c-6.35,0-11.93-.73-16.73-2.2-4.8-1.46-8.59-3.87-11.35-7.2-2.77-3.33-4.39-7.69-4.88-13.06-.49-5.37.4-11.96,2.69-19.78l61.53-209h41.02Z"/>
  <path class="cls-1" d="M1764.67,288.25h-41.02l61.77-209.98h41.02l-61.77,209.98ZM1906.28,80.95c1.62-5.7-.65-8.55-6.84-8.55h-131.85l22.46-35.4h140.15c9.28,0,15.79,2.77,19.53,8.3,3.74,5.54,4.39,12.45,1.95,20.75l-65.44,222.19h-41.02l61.04-207.3ZM1825.47,288.25h-41.02l61.77-209.98h41.02l-61.77,209.98Z"/>
  <path class="cls-1" d="M2016.64,148.1c4.72,0,8.91.65,12.57,1.95,3.66,1.31,6.59,3.38,8.79,6.23,2.2,2.85,3.5,6.47,3.91,10.87.4,4.4-.29,9.69-2.08,15.87l-24.91,84.72c-1.3,4.39-3.14,7.94-5.49,10.62-2.36,2.69-4.97,4.76-7.81,6.23-2.85,1.46-5.86,2.44-9.03,2.93s-6.31.73-9.4.73h-48.1c-7,0-12.41-2.52-16.24-7.57-3.83-5.04-4.52-11.64-2.08-19.78l12.21-42h38.82l-9.28,30.76c-.65,2.12-.49,3.46.49,4.03.98.57,2.2.85,3.66.85h9.28c2.28,0,3.99-.37,5.13-1.1,1.14-.73,2.03-2.24,2.69-4.52l19.78-66.9c.32-.98.37-1.79.12-2.44-.24-.65-1.18-.98-2.81-.98h-55.91l9.03-30.52h66.66ZM1951.7,142.24l24.9-84.24c1.3-4.4,3.01-7.97,5.13-10.74,2.11-2.77,4.52-4.92,7.2-6.47,2.69-1.54,5.57-2.56,8.67-3.05,3.09-.49,6.18-.73,9.28-.73h75.94l-20.27,69.34-41.26,9.28,13.67-46.15h-15.38c-2.28,0-3.95.37-5.01,1.1-1.06.73-1.92,2.24-2.56,4.52l-19.53,67.15h-40.78Z"/>
</svg>