<?xml version="1.0" encoding="UTF-8"?>
<svg id="Layer_1" data-name="Layer 1" xmlns="http://www.w3.org/2000/svg" viewBox="0 0 756.09 255.95">
  <defs>
    <style>
      .cls-1 {
        fill: #0c4ca5;
      }

      .cls-1, .cls-2 {
        stroke-width: 0px;
      }

      .cls-2 {
        fill: #92b1d6;
      }
    </style>
  </defs>
  <path class="cls-2" d="M26.82,185.25c25.82.52,51.43-1.02,76.46-8.09,12.74-3.6,24.25-9.67,35.22-16.97,15.03-10,29.98-20.13,45.66-29.1,11.75-6.73,23.92-12.41,37.21-15.68,17.6-4.33,34.64-2.02,51.57,3.18,9.59,2.95,18.78,6.9,27.82,11.22,2.3,1.1,2.98,2.42,2.28,4.82-.88,3.04-1.63,6.12-2.29,9.21-.41,1.95-1.36,2.15-3.13,1.71-7.23-1.8-14.53-3.08-22.03-3.14-14.46-.12-27.85,3.56-40.53,10.43-16.61,8.99-31.16,20.65-44.98,33.4-9.99,9.21-19.3,19.2-30.01,27.61-17.54,13.77-37.62,21.42-59.65,24.2-4.84.61-9.71.86-14.59.88-1.94.01-3.7-.47-5.4-1.4-14.07-7.68-26.77-17.18-37.85-28.78-6.28-6.57-11.98-13.61-17-21.18-.4-.6-1.22-1.19-.67-2.02.42-.64,1.23-.45,1.92-.3Z"/>
  <path class="cls-1" d="M88.22,122.43c1.62-.94,1.93-1.15,2.97-1.48,2.86-.89,5.8-1.59,8.52-2.8,5.91-2.63,11.89-5.12,17.29-8.79,14.63-9.94,25.29-22.81,27.48-40.82,2.08-17.06-2.1-32.47-16.21-43.61-9.82-7.75-20.97-7.8-32.4-3.84-.86.3-1.65.92-2.92.67.9-1.49,2.17-2.44,3.35-3.45,11.58-9.82,25.18-15.06,40.02-17.19,22.94-3.28,44.78.84,65.73,10.35,19.19,8.71,35.17,21.56,48.77,37.59,7.74,9.13,14.99,18.66,23.04,27.54,8.49,9.37,17.67,17.91,28.63,24.31,2.86,1.67,4.34,3.56,3.78,6.93-.24,1.42-.04,2.9-.11,4.36-.12,2.81-.56,3.13-3.01,1.97-5.96-2.81-11.86-5.72-17.64-8.9-12.81-7.06-25.54-14.3-39.18-19.7-6.83-2.7-14.02-3.83-21.3-4.22-23.57-1.25-45.38,4.7-65.93,16.01-10.41,5.73-20.9,11.36-32.11,15.45-5.78,2.11-11.63,3.99-17.61,5.5-6.94,1.75-13.97,2.95-21.18,4.12Z"/>
  <path class="cls-1" d="M162.55,134.33c-12.91,8.56-25.77,17.17-39.6,24.23-16.21,8.28-33.54,12.64-51.42,15.27-15.39,2.27-30.86,2.23-46.35,1.97-1.88-.03-3.75-.37-5.62-.45-1.48-.07-2.02-1.1-2.57-2.18-7.17-14.05-12.28-28.78-14.94-44.35-.96-5.65-1.71-11.33-2.01-17.06-.18-3.4.22-3.63,3.42-2.23,13.12,5.71,26.53,10.62,40.34,14.39,12.98,3.54,26.09,6.16,39.61,6.78,11.99.54,23.48-1.61,34.91-4.72,5.03-1.37,10-2.9,14.93-4.6,15.68-5.41,30.56-12.66,45.63-19.46,9.94-4.48,20.06-8.28,30.95-9.67,9.6-1.22,19.13-.51,28.57,1.34,12.25,2.4,23.99,6.28,34.68,12.94.63.39,1.45.59,1.84,1.91-2.39-1.1-4.39-2.05-6.42-2.94-19.6-8.62-39.25-7.9-58.91-.22-4.55,1.78-9.01,3.72-13.21,6.25-7.67,4.62-15.12,9.56-22.42,14.74-.49.35-.67-1.1,0,0"/>
  <path class="cls-1" d="M100.92,246.01c3.18-.43,6.37-.79,9.54-1.31,17.33-2.83,33.08-9.68,47.91-18.87,14.38-8.92,27.27-19.74,39.97-30.84,16.26-14.21,34.13-25.75,55.02-32.03,12.62-3.8,25.44-5.15,38.5-2.66,2.91.55,3.02.72,1.81,3.48-9.51,21.66-23.22,40.19-41.27,55.53-19.35,16.45-41.41,27.47-66.17,32.98-20.37,4.53-40.85,4.87-61.38.98-7.07-1.34-14.03-3.11-20.84-5.41-1.04-.35-2.05-.79-3.07-1.19,0-.22-.01-.44-.02-.66Z"/>
  <path class="cls-2" d="M6.8,105.52c5.23,1.08,10.18,1.88,15.16,2.43,12.15,1.34,24.23.95,36.29-1,17.78-2.87,34.16-9.25,48.75-19.86,8.25-6,15.3-13.17,19.22-22.89,4.04-10.01,4-19.83-1.38-29.41-.12-.21-.13-.48-.26-.97,1.54.1,2.3,1.15,3.1,2.03,4.92,5.36,6.8,11.99,7.53,18.99,1.54,14.9-3.35,27.67-13.51,38.41-7.48,7.9-16.73,13.25-26.92,16.96-14.3,5.21-29.09,6.21-44.15,5.16-14-.98-27.58-3.9-40.87-8.31-.94-.31-2.02-.39-2.97-1.55Z"/>
  <g>
    <path class="cls-1" d="M424.77,116.2l-.1-2.95c-.69-20.23-6.67-39.07-15.99-51.24v54.18h-27.35l-.1-2.95c-.69-20.19-6.72-39.04-16.11-51.25v54.2h-27.94V18.32l3.29.26c17.29,1.37,30.78,11.43,40.15,21.57v-21.86l3.32.3c18.51,1.67,36.16,13.6,49.68,33.59,12.2,18.04,19.48,40.83,19.48,60.97v3.05h-28.33Z"/>
    <path class="cls-2" d="M427.72,113.15c-.85-24.89-9.52-47.35-22.09-59.06v59.06h-21.36c-.85-24.89-9.64-47.35-22.21-59.06v59.06h-21.84V21.63c16.96,1.34,31.97,12.08,43.44,26.85v-26.85c37.95,3.42,66.38,52.11,66.38,91.52h-22.33Z"/>
    <path class="cls-1" d="M504.78,116.2l-.07-2.98c-.1-4.03-.53-8.11-1.26-11.91h-20.47v14.89h-27.45V18.3l3.31.28c19.51,1.66,38.13,13.57,52.42,33.52,12.94,18.06,20.66,40.88,20.66,61.04v3.05h-27.14ZM496.97,80.44c-3.78-8.52-8.59-15.9-13.98-21.52v21.52h13.98Z"/>
    <path class="cls-2" d="M507.76,113.15c-.12-5-.73-10.13-1.83-14.89h-25.99v14.89h-21.35V21.63c40.15,3.42,70.29,52.11,70.29,91.52h-21.11ZM501.54,83.49c-5.12-13.18-12.81-24.53-21.6-31.48v31.48h21.6Z"/>
    <path class="cls-1" d="M585.04,116.2l-.17-2.87c-.98-16.95-10.56-33.96-22.58-41.07v43.95h-27.82V19.55h27.82v23.12c3.95-3.18,9.66-11.03,12.44-20.89l.63-2.22h27.89l-.89,3.75c-3.6,15.18-9.48,25.89-17.89,32.58,19.19,13.01,29.2,38.01,29.2,57.26v3.05h-28.63Z"/>
    <path class="cls-2" d="M587.92,113.15c-1.1-19.04-12.69-39.66-28.68-45.76v45.76h-21.72V22.6h21.72v24.65c5.73,0,14.89-12.08,18.43-24.65h21.72c-4.03,16.96-10.86,27.7-20.5,33.44,21.48,11.84,31.73,38.19,31.73,57.11h-22.7Z"/>
    <rect class="cls-1" x="616.23" y="19.55" width="27.82" height="96.64"/>
    <path class="cls-2" d="M619.28,113.15V22.6h21.72v90.54h-21.72Z"/>
    <path class="cls-1" d="M696.52,116.2v-3.05c0-21.6-5.42-37.36-18.43-52.67v55.72h-27.21V19.55h25.73l.79.55c8.64,6.01,16.78,14.36,22.79,23.14v-23.68h25.01v96.64h-28.67Z"/>
    <path class="cls-2" d="M699.57,113.15c0-26.6-8.3-43.93-24.53-60.53v60.53h-21.11V22.6h21.72c12.45,8.66,22.58,21.35,27.58,31.97v-31.97h18.91v90.54h-22.57Z"/>
    <polygon class="cls-1" points="729.62 57.38 734.85 19.55 756.09 19.55 745.18 57.38 729.62 57.38"/>
    <path class="cls-2" d="M733.12,54.33l4.39-31.73h14.52l-9.15,31.73h-9.76Z"/>
    <path class="cls-1" d="M380.62,215.94c-11.85,12.82-25.87,20.43-40.13,21.66l-3.31.29v-98.02h27.94v54.32c9.39-12.22,15.42-31.11,16.11-51.37l.1-2.95h27.35v54.3c9.31-12.18,15.29-31.06,15.99-51.35l.1-2.95h28.33v3.05c0,20.19-7.28,43.02-19.48,61.07-13.52,20-31.16,31.94-49.68,33.61l-3.32.3v-21.96Z"/>
    <path class="cls-2" d="M383.67,207.6c-11.47,14.89-26.48,25.5-43.44,26.97v-91.64h21.84v59.18c12.57-11.71,21.35-34.29,22.21-59.18h21.36v59.18c12.57-11.71,21.23-34.29,22.09-59.18h22.33c0,39.54-28.43,88.23-66.38,91.64v-26.97Z"/>
    <path class="cls-1" d="M483.36,236.52v-14.89h-20.46c-.65,3.56-1.04,7.56-1.14,11.91l-.07,2.98h-27.26v-3.05c0-20.16,7.72-42.97,20.66-61.03,14.3-19.96,32.91-31.86,52.42-33.53l3.31-.28v97.89h-27.45ZM483.36,200.77v-21.52c-5.39,5.62-10.19,13.01-13.98,21.52h13.98Z"/>
    <path class="cls-2" d="M486.41,233.47v-14.89h-25.99c-1.1,4.76-1.59,9.89-1.71,14.89h-21.23c0-39.41,30.14-88.1,70.29-91.52v91.52h-21.35ZM486.41,172.33c-8.79,6.96-16.47,18.3-21.6,31.48h21.6v-31.48Z"/>
    <path class="cls-1" d="M586.33,237.61c-19.51-1.66-38.13-13.57-52.42-33.54-12.94-18.08-20.66-40.93-20.66-61.14v-3.05h27.47l.1,2.95c.7,20.47,8.88,41.04,20.87,53.5v-56.45h27.94v98.01l-3.31-.28Z"/>
    <path class="cls-2" d="M564.74,142.92h21.84v91.64c-40.15-3.42-70.29-52.11-70.29-91.64h21.48c.86,24.89,12.08,48.57,26.97,60.28v-60.28Z"/>
    <path class="cls-1" d="M651.89,237.61c-35.27-2.55-58.96-34.36-58.96-62.47v-3.05h9.32c-4.42-6.15-9.7-16.15-10.06-29.08l-.08-3.13h64.88v23.43h-32.16c2.04,3.82,6.38,7.8,10.88,8.79h19.46v21.96h-28.77c4.27,8.8,13.86,14.76,26,15.88l2.77.25v27.66l-3.27-.24Z"/>
    <path class="cls-2" d="M652.11,234.57c-32.09-2.32-56.13-31.73-56.13-59.43h12.69c-6.83-7.32-13.06-18.79-13.42-32.22h58.69v17.33h-33.31c.73,6.1,7.81,13.54,14.77,14.89h16.72v15.86h-30.14c3.3,11.59,14.28,20.5,30.14,21.96v21.6Z"/>
    <polygon class="cls-1" points="660.04 236.52 685.18 177.82 657.87 177.82 675.03 139.87 707.06 139.87 695.47 164.53 720.87 164.53 692.74 236.52 660.04 236.52"/>
    <path class="cls-2" d="M664.67,233.47l25.14-58.69h-27.21l14.4-31.85h25.26l-11.59,24.65h25.75l-25.75,65.89h-25.99Z"/>
  </g>
  <g>
    <path class="cls-2" d="M420.48,111.06l-.1-2.95c-.69-20.23-6.67-39.07-15.99-51.24v54.18h-27.35l-.1-2.95c-.69-20.19-6.72-39.04-16.11-51.25v54.2h-27.94V13.19l3.29.26c17.29,1.37,30.78,11.43,40.15,21.57V13.15l3.32.3c18.51,1.67,36.16,13.6,49.68,33.59,12.2,18.04,19.48,40.83,19.48,60.97v3.05h-28.33Z"/>
    <path class="cls-1" d="M423.42,108.01c-.85-24.89-9.52-47.35-22.09-59.06v59.06h-21.36c-.85-24.89-9.64-47.35-22.21-59.06v59.06h-21.84V16.49c16.96,1.34,31.97,12.08,43.44,26.85v-26.85c37.95,3.42,66.38,52.11,66.38,91.52h-22.33Z"/>
    <path class="cls-2" d="M500.49,111.06l-.07-2.98c-.1-4.03-.53-8.11-1.26-11.91h-20.47v14.89h-27.45V13.17l3.31.28c19.51,1.66,38.13,13.57,52.42,33.52,12.94,18.06,20.66,40.88,20.66,61.04v3.05h-27.14ZM492.67,75.31c-3.78-8.52-8.59-15.9-13.98-21.52v21.52h13.98Z"/>
    <path class="cls-1" d="M503.46,108.01c-.12-5-.73-10.13-1.83-14.89h-25.99v14.89h-21.35V16.49c40.15,3.42,70.29,52.11,70.29,91.52h-21.11ZM497.24,78.36c-5.12-13.18-12.81-24.53-21.6-31.48v31.48h21.6Z"/>
    <path class="cls-2" d="M580.75,111.06l-.17-2.87c-.98-16.95-10.56-33.96-22.58-41.07v43.95h-27.82V14.42h27.82v23.12c3.95-3.18,9.66-11.03,12.44-20.89l.63-2.22h27.89l-.89,3.75c-3.6,15.18-9.48,25.89-17.89,32.58,19.19,13.01,29.2,38.01,29.2,57.26v3.05h-28.63Z"/>
    <path class="cls-1" d="M583.63,108.01c-1.1-19.04-12.69-39.66-28.68-45.76v45.76h-21.72V17.47h21.72v24.65c5.73,0,14.89-12.08,18.43-24.65h21.72c-4.03,16.96-10.86,27.7-20.5,33.44,21.48,11.84,31.73,38.19,31.73,57.11h-22.7Z"/>
    <rect class="cls-2" x="611.93" y="14.42" width="27.82" height="96.64"/>
    <path class="cls-1" d="M614.98,108.01V17.47h21.72v90.54h-21.72Z"/>
    <path class="cls-2" d="M692.22,111.06v-3.05c0-21.6-5.42-37.36-18.43-52.67v55.72h-27.21V14.42h25.73l.79.55c8.64,6.01,16.78,14.36,22.79,23.14V14.42h25.01v96.64h-28.67Z"/>
    <path class="cls-1" d="M695.27,108.01c0-26.6-8.3-43.93-24.53-60.53v60.53h-21.11V17.47h21.72c12.45,8.66,22.58,21.35,27.58,31.97v-31.97h18.91v90.54h-22.57Z"/>
    <polygon class="cls-2" points="725.32 52.24 730.56 14.42 751.79 14.42 740.88 52.24 725.32 52.24"/>
    <path class="cls-1" d="M728.82,49.19l4.39-31.73h14.52l-9.15,31.73h-9.76Z"/>
    <path class="cls-2" d="M376.32,210.81c-11.85,12.82-25.87,20.43-40.13,21.66l-3.31.29v-98.02h27.94v54.32c9.39-12.22,15.42-31.11,16.11-51.37l.1-2.95h27.35v54.3c9.31-12.18,15.29-31.06,15.99-51.35l.1-2.95h28.33v3.05c0,20.19-7.28,43.02-19.48,61.07-13.52,20-31.16,31.94-49.68,33.61l-3.32.3v-21.96Z"/>
    <path class="cls-1" d="M379.37,202.46c-11.47,14.89-26.48,25.5-43.44,26.97v-91.64h21.84v59.18c12.57-11.71,21.35-34.29,22.21-59.18h21.36v59.18c12.57-11.71,21.23-34.29,22.09-59.18h22.33c0,39.54-28.43,88.23-66.38,91.64v-26.97Z"/>
    <path class="cls-2" d="M479.06,231.38v-14.89h-20.46c-.65,3.56-1.04,7.56-1.14,11.91l-.07,2.98h-27.26v-3.05c0-20.16,7.72-42.97,20.66-61.03,14.3-19.96,32.91-31.86,52.42-33.53l3.31-.28v97.89h-27.45ZM479.06,195.63v-21.52c-5.39,5.62-10.19,13.01-13.98,21.52h13.98Z"/>
    <path class="cls-1" d="M482.11,228.33v-14.89h-25.99c-1.1,4.76-1.59,9.89-1.71,14.89h-21.23c0-39.41,30.14-88.1,70.29-91.52v91.52h-21.35ZM482.11,167.2c-8.79,6.96-16.47,18.3-21.6,31.48h21.6v-31.48Z"/>
    <path class="cls-2" d="M582.03,232.47c-19.51-1.66-38.13-13.57-52.42-33.54-12.94-18.08-20.66-40.93-20.66-61.14v-3.05h27.47l.1,2.95c.7,20.47,8.88,41.04,20.87,53.5v-56.45h27.94v98.01l-3.31-.28Z"/>
    <path class="cls-1" d="M560.45,137.79h21.84v91.64c-40.15-3.42-70.29-52.11-70.29-91.64h21.48c.86,24.89,12.08,48.57,26.97,60.28v-60.28Z"/>
    <path class="cls-2" d="M647.59,232.47c-35.27-2.55-58.96-34.36-58.96-62.47v-3.05h9.32c-4.42-6.15-9.7-16.15-10.06-29.08l-.08-3.13h64.88v23.43h-32.16c2.04,3.82,6.38,7.8,10.88,8.79h19.46v21.96h-28.77c4.27,8.8,13.86,14.76,26,15.88l2.77.25v27.66l-3.27-.24Z"/>
    <path class="cls-1" d="M647.81,229.43c-32.09-2.32-56.13-31.73-56.13-59.43h12.69c-6.83-7.32-13.06-18.79-13.42-32.22h58.69v17.33h-33.31c.73,6.1,7.81,13.54,14.77,14.89h16.72v15.86h-30.14c3.3,11.59,14.28,20.5,30.14,21.96v21.6Z"/>
    <polygon class="cls-2" points="655.75 231.38 680.88 172.69 653.57 172.69 670.73 134.74 702.76 134.74 691.17 159.39 716.58 159.39 688.45 231.38 655.75 231.38"/>
    <path class="cls-1" d="M660.37,228.33l25.14-58.69h-27.21l14.4-31.85h25.26l-11.59,24.65h25.75l-25.75,65.89h-25.99Z"/>
  </g>
</svg>